<?xml version="1.0" encoding="utf-8"?>
<svg xmlns="http://www.w3.org/2000/svg" xmlns:xlink="http://www.w3.org/1999/xlink" width="600" height="400" viewBox="0 0 2400 1600">
<defs>
  <clipPath id="clip540">
    <rect x="0" y="0" width="2400" height="1600"/>
  </clipPath>
</defs>
<path clip-path="url(#clip540)" d="
M0 1600 L2400 1600 L2400 0 L0 0  Z
  " fill="#ffffff" fill-rule="evenodd" fill-opacity="1"/>
<defs>
  <clipPath id="clip541">
    <rect x="480" y="0" width="1681" height="1600"/>
  </clipPath>
</defs>
<path clip-path="url(#clip540)" d="
M568.629 1486.45 L1931.6 1486.45 L1931.6 123.472 L568.629 123.472  Z
  " fill="#ffffff" fill-rule="evenodd" fill-opacity="1"/>
<defs>
  <clipPath id="clip542">
    <rect x="568" y="123" width="1364" height="1364"/>
  </clipPath>
</defs>
<polyline clip-path="url(#clip542)" style="stroke:#000000; stroke-linecap:butt; stroke-linejoin:round; stroke-width:2; stroke-opacity:0.1; fill:none" points="
  568.629,1486.45 568.629,123.472 
  "/>
<polyline clip-path="url(#clip542)" style="stroke:#000000; stroke-linecap:butt; stroke-linejoin:round; stroke-width:2; stroke-opacity:0.1; fill:none" points="
  841.224,1486.45 841.224,123.472 
  "/>
<polyline clip-path="url(#clip542)" style="stroke:#000000; stroke-linecap:butt; stroke-linejoin:round; stroke-width:2; stroke-opacity:0.1; fill:none" points="
  1113.82,1486.45 1113.82,123.472 
  "/>
<polyline clip-path="url(#clip542)" style="stroke:#000000; stroke-linecap:butt; stroke-linejoin:round; stroke-width:2; stroke-opacity:0.1; fill:none" points="
  1386.41,1486.45 1386.41,123.472 
  "/>
<polyline clip-path="url(#clip542)" style="stroke:#000000; stroke-linecap:butt; stroke-linejoin:round; stroke-width:2; stroke-opacity:0.1; fill:none" points="
  1659.01,1486.45 1659.01,123.472 
  "/>
<polyline clip-path="url(#clip542)" style="stroke:#000000; stroke-linecap:butt; stroke-linejoin:round; stroke-width:2; stroke-opacity:0.1; fill:none" points="
  1931.6,1486.45 1931.6,123.472 
  "/>
<polyline clip-path="url(#clip540)" style="stroke:#000000; stroke-linecap:butt; stroke-linejoin:round; stroke-width:4; stroke-opacity:1; fill:none" points="
  568.629,1486.45 1931.6,1486.45 
  "/>
<polyline clip-path="url(#clip540)" style="stroke:#000000; stroke-linecap:butt; stroke-linejoin:round; stroke-width:4; stroke-opacity:1; fill:none" points="
  568.629,1486.45 568.629,1470.09 
  "/>
<polyline clip-path="url(#clip540)" style="stroke:#000000; stroke-linecap:butt; stroke-linejoin:round; stroke-width:4; stroke-opacity:1; fill:none" points="
  841.224,1486.45 841.224,1470.09 
  "/>
<polyline clip-path="url(#clip540)" style="stroke:#000000; stroke-linecap:butt; stroke-linejoin:round; stroke-width:4; stroke-opacity:1; fill:none" points="
  1113.82,1486.45 1113.82,1470.09 
  "/>
<polyline clip-path="url(#clip540)" style="stroke:#000000; stroke-linecap:butt; stroke-linejoin:round; stroke-width:4; stroke-opacity:1; fill:none" points="
  1386.41,1486.45 1386.41,1470.09 
  "/>
<polyline clip-path="url(#clip540)" style="stroke:#000000; stroke-linecap:butt; stroke-linejoin:round; stroke-width:4; stroke-opacity:1; fill:none" points="
  1659.01,1486.45 1659.01,1470.09 
  "/>
<polyline clip-path="url(#clip540)" style="stroke:#000000; stroke-linecap:butt; stroke-linejoin:round; stroke-width:4; stroke-opacity:1; fill:none" points="
  1931.6,1486.45 1931.6,1470.09 
  "/>
<path clip-path="url(#clip540)" d="M538.386 1530.29 L568.062 1530.29 L568.062 1534.23 L538.386 1534.23 L538.386 1530.29 Z" fill="#000000" fill-rule="evenodd" fill-opacity="1" /><path clip-path="url(#clip540)" d="M578.965 1543.18 L586.603 1543.18 L586.603 1516.82 L578.293 1518.49 L578.293 1514.23 L586.557 1512.56 L591.233 1512.56 L591.233 1543.18 L598.872 1543.18 L598.872 1547.12 L578.965 1547.12 L578.965 1543.18 Z" fill="#000000" fill-rule="evenodd" fill-opacity="1" /><path clip-path="url(#clip540)" d="M841.224 1515.64 Q837.613 1515.64 835.784 1519.2 Q833.979 1522.75 833.979 1529.87 Q833.979 1536.98 835.784 1540.55 Q837.613 1544.09 841.224 1544.09 Q844.858 1544.09 846.664 1540.55 Q848.493 1536.98 848.493 1529.87 Q848.493 1522.75 846.664 1519.2 Q844.858 1515.64 841.224 1515.64 M841.224 1511.93 Q847.034 1511.93 850.09 1516.54 Q853.169 1521.12 853.169 1529.87 Q853.169 1538.6 850.09 1543.21 Q847.034 1547.79 841.224 1547.79 Q835.414 1547.79 832.335 1543.21 Q829.28 1538.6 829.28 1529.87 Q829.28 1521.12 832.335 1516.54 Q835.414 1511.93 841.224 1511.93 Z" fill="#000000" fill-rule="evenodd" fill-opacity="1" /><path clip-path="url(#clip540)" d="M1104.2 1543.18 L1111.84 1543.18 L1111.84 1516.82 L1103.53 1518.49 L1103.53 1514.23 L1111.79 1512.56 L1116.47 1512.56 L1116.47 1543.18 L1124.11 1543.18 L1124.11 1547.12 L1104.2 1547.12 L1104.2 1543.18 Z" fill="#000000" fill-rule="evenodd" fill-opacity="1" /><path clip-path="url(#clip540)" d="M1381.07 1543.18 L1397.39 1543.18 L1397.39 1547.12 L1375.44 1547.12 L1375.44 1543.18 Q1378.1 1540.43 1382.69 1535.8 Q1387.29 1531.15 1388.47 1529.81 Q1390.72 1527.28 1391.6 1525.55 Q1392.5 1523.79 1392.5 1522.1 Q1392.5 1519.34 1390.56 1517.61 Q1388.64 1515.87 1385.53 1515.87 Q1383.34 1515.87 1380.88 1516.63 Q1378.45 1517.4 1375.67 1518.95 L1375.67 1514.23 Q1378.5 1513.09 1380.95 1512.51 Q1383.41 1511.93 1385.44 1511.93 Q1390.81 1511.93 1394.01 1514.62 Q1397.2 1517.31 1397.2 1521.8 Q1397.2 1523.93 1396.39 1525.85 Q1395.6 1527.74 1393.5 1530.34 Q1392.92 1531.01 1389.82 1534.23 Q1386.72 1537.42 1381.07 1543.18 Z" fill="#000000" fill-rule="evenodd" fill-opacity="1" /><path clip-path="url(#clip540)" d="M1663.26 1528.49 Q1666.61 1529.2 1668.49 1531.47 Q1670.39 1533.74 1670.39 1537.07 Q1670.39 1542.19 1666.87 1544.99 Q1663.35 1547.79 1656.87 1547.79 Q1654.69 1547.79 1652.38 1547.35 Q1650.09 1546.93 1647.63 1546.08 L1647.63 1541.56 Q1649.58 1542.7 1651.89 1543.28 Q1654.21 1543.86 1656.73 1543.86 Q1661.13 1543.86 1663.42 1542.12 Q1665.73 1540.38 1665.73 1537.07 Q1665.73 1534.02 1663.58 1532.31 Q1661.45 1530.57 1657.63 1530.57 L1653.6 1530.57 L1653.6 1526.73 L1657.82 1526.73 Q1661.27 1526.73 1663.1 1525.36 Q1664.92 1523.97 1664.92 1521.38 Q1664.92 1518.72 1663.03 1517.31 Q1661.15 1515.87 1657.63 1515.87 Q1655.71 1515.87 1653.51 1516.29 Q1651.31 1516.7 1648.67 1517.58 L1648.67 1513.42 Q1651.34 1512.68 1653.65 1512.31 Q1655.99 1511.93 1658.05 1511.93 Q1663.37 1511.93 1666.47 1514.37 Q1669.58 1516.77 1669.58 1520.89 Q1669.58 1523.76 1667.93 1525.75 Q1666.29 1527.72 1663.26 1528.49 Z" fill="#000000" fill-rule="evenodd" fill-opacity="1" /><path clip-path="url(#clip540)" d="M1934.61 1516.63 L1922.81 1535.08 L1934.61 1535.08 L1934.61 1516.63 M1933.39 1512.56 L1939.27 1512.56 L1939.27 1535.08 L1944.2 1535.08 L1944.2 1538.97 L1939.27 1538.97 L1939.27 1547.12 L1934.61 1547.12 L1934.61 1538.97 L1919.01 1538.97 L1919.01 1534.46 L1933.39 1512.56 Z" fill="#000000" fill-rule="evenodd" fill-opacity="1" /><polyline clip-path="url(#clip542)" style="stroke:#000000; stroke-linecap:butt; stroke-linejoin:round; stroke-width:2; stroke-opacity:0.1; fill:none" points="
  568.629,1486.45 1931.6,1486.45 
  "/>
<polyline clip-path="url(#clip542)" style="stroke:#000000; stroke-linecap:butt; stroke-linejoin:round; stroke-width:2; stroke-opacity:0.1; fill:none" points="
  568.629,1213.85 1931.6,1213.85 
  "/>
<polyline clip-path="url(#clip542)" style="stroke:#000000; stroke-linecap:butt; stroke-linejoin:round; stroke-width:2; stroke-opacity:0.1; fill:none" points="
  568.629,941.258 1931.6,941.258 
  "/>
<polyline clip-path="url(#clip542)" style="stroke:#000000; stroke-linecap:butt; stroke-linejoin:round; stroke-width:2; stroke-opacity:0.1; fill:none" points="
  568.629,668.662 1931.6,668.662 
  "/>
<polyline clip-path="url(#clip542)" style="stroke:#000000; stroke-linecap:butt; stroke-linejoin:round; stroke-width:2; stroke-opacity:0.1; fill:none" points="
  568.629,396.067 1931.6,396.067 
  "/>
<polyline clip-path="url(#clip542)" style="stroke:#000000; stroke-linecap:butt; stroke-linejoin:round; stroke-width:2; stroke-opacity:0.1; fill:none" points="
  568.629,123.472 1931.6,123.472 
  "/>
<polyline clip-path="url(#clip540)" style="stroke:#000000; stroke-linecap:butt; stroke-linejoin:round; stroke-width:4; stroke-opacity:1; fill:none" points="
  568.629,1486.45 568.629,123.472 
  "/>
<polyline clip-path="url(#clip540)" style="stroke:#000000; stroke-linecap:butt; stroke-linejoin:round; stroke-width:4; stroke-opacity:1; fill:none" points="
  568.629,1486.45 584.985,1486.45 
  "/>
<polyline clip-path="url(#clip540)" style="stroke:#000000; stroke-linecap:butt; stroke-linejoin:round; stroke-width:4; stroke-opacity:1; fill:none" points="
  568.629,1213.85 584.985,1213.85 
  "/>
<polyline clip-path="url(#clip540)" style="stroke:#000000; stroke-linecap:butt; stroke-linejoin:round; stroke-width:4; stroke-opacity:1; fill:none" points="
  568.629,941.258 584.985,941.258 
  "/>
<polyline clip-path="url(#clip540)" style="stroke:#000000; stroke-linecap:butt; stroke-linejoin:round; stroke-width:4; stroke-opacity:1; fill:none" points="
  568.629,668.662 584.985,668.662 
  "/>
<polyline clip-path="url(#clip540)" style="stroke:#000000; stroke-linecap:butt; stroke-linejoin:round; stroke-width:4; stroke-opacity:1; fill:none" points="
  568.629,396.067 584.985,396.067 
  "/>
<polyline clip-path="url(#clip540)" style="stroke:#000000; stroke-linecap:butt; stroke-linejoin:round; stroke-width:4; stroke-opacity:1; fill:none" points="
  568.629,123.472 584.985,123.472 
  "/>
<path clip-path="url(#clip540)" d="M472.143 1486.9 L501.819 1486.9 L501.819 1490.83 L472.143 1490.83 L472.143 1486.9 Z" fill="#000000" fill-rule="evenodd" fill-opacity="1" /><path clip-path="url(#clip540)" d="M512.722 1499.79 L520.361 1499.79 L520.361 1473.43 L512.05 1475.09 L512.05 1470.83 L520.314 1469.17 L524.99 1469.17 L524.99 1499.79 L532.629 1499.79 L532.629 1503.73 L512.722 1503.73 L512.722 1499.79 Z" fill="#000000" fill-rule="evenodd" fill-opacity="1" /><path clip-path="url(#clip540)" d="M520.685 1199.65 Q517.074 1199.65 515.245 1203.22 Q513.439 1206.76 513.439 1213.89 Q513.439 1220.99 515.245 1224.56 Q517.074 1228.1 520.685 1228.1 Q524.319 1228.1 526.124 1224.56 Q527.953 1220.99 527.953 1213.89 Q527.953 1206.76 526.124 1203.22 Q524.319 1199.65 520.685 1199.65 M520.685 1195.95 Q526.495 1195.95 529.55 1200.55 Q532.629 1205.14 532.629 1213.89 Q532.629 1222.61 529.55 1227.22 Q526.495 1231.8 520.685 1231.8 Q514.875 1231.8 511.796 1227.22 Q508.74 1222.61 508.74 1213.89 Q508.74 1205.14 511.796 1200.55 Q514.875 1195.95 520.685 1195.95 Z" fill="#000000" fill-rule="evenodd" fill-opacity="1" /><path clip-path="url(#clip540)" d="M512.722 954.602 L520.361 954.602 L520.361 928.237 L512.05 929.903 L512.05 925.644 L520.314 923.978 L524.99 923.978 L524.99 954.602 L532.629 954.602 L532.629 958.538 L512.722 958.538 L512.722 954.602 Z" fill="#000000" fill-rule="evenodd" fill-opacity="1" /><path clip-path="url(#clip540)" d="M516.31 682.007 L532.629 682.007 L532.629 685.942 L510.685 685.942 L510.685 682.007 Q513.347 679.253 517.93 674.623 Q522.536 669.97 523.717 668.628 Q525.962 666.105 526.842 664.368 Q527.745 662.609 527.745 660.919 Q527.745 658.165 525.8 656.429 Q523.879 654.693 520.777 654.693 Q518.578 654.693 516.124 655.456 Q513.694 656.22 510.916 657.771 L510.916 653.049 Q513.74 651.915 516.194 651.336 Q518.648 650.757 520.685 650.757 Q526.055 650.757 529.249 653.443 Q532.444 656.128 532.444 660.618 Q532.444 662.748 531.634 664.669 Q530.847 666.568 528.74 669.16 Q528.161 669.831 525.06 673.049 Q521.958 676.243 516.31 682.007 Z" fill="#000000" fill-rule="evenodd" fill-opacity="1" /><path clip-path="url(#clip540)" d="M525.499 394.713 Q528.856 395.431 530.731 397.699 Q532.629 399.968 532.629 403.301 Q532.629 408.417 529.111 411.218 Q525.592 414.019 519.111 414.019 Q516.935 414.019 514.62 413.579 Q512.328 413.162 509.875 412.306 L509.875 407.792 Q511.819 408.926 514.134 409.505 Q516.449 410.083 518.972 410.083 Q523.37 410.083 525.661 408.347 Q527.976 406.611 527.976 403.301 Q527.976 400.245 525.824 398.533 Q523.694 396.796 519.874 396.796 L515.847 396.796 L515.847 392.954 L520.06 392.954 Q523.509 392.954 525.337 391.588 Q527.166 390.199 527.166 387.607 Q527.166 384.945 525.268 383.533 Q523.393 382.097 519.874 382.097 Q517.953 382.097 515.754 382.514 Q513.555 382.931 510.916 383.81 L510.916 379.644 Q513.578 378.903 515.893 378.533 Q518.231 378.162 520.291 378.162 Q525.615 378.162 528.717 380.593 Q531.819 383 531.819 387.121 Q531.819 389.991 530.175 391.982 Q528.532 393.949 525.499 394.713 Z" fill="#000000" fill-rule="evenodd" fill-opacity="1" /><path clip-path="url(#clip540)" d="M523.046 110.266 L511.24 128.715 L523.046 128.715 L523.046 110.266 M521.819 106.192 L527.699 106.192 L527.699 128.715 L532.629 128.715 L532.629 132.604 L527.699 132.604 L527.699 140.752 L523.046 140.752 L523.046 132.604 L507.444 132.604 L507.444 128.09 L521.819 106.192 Z" fill="#000000" fill-rule="evenodd" fill-opacity="1" /><path clip-path="url(#clip540)" d="M847.254 16.7545 L847.254 25.383 Q843.123 21.5346 838.424 19.6307 Q833.765 17.7268 828.499 17.7268 Q818.128 17.7268 812.619 24.0867 Q807.11 30.4061 807.11 42.3968 Q807.11 54.3469 812.619 60.7069 Q818.128 67.0263 828.499 67.0263 Q833.765 67.0263 838.424 65.1223 Q843.123 63.2184 847.254 59.3701 L847.254 67.9175 Q842.961 70.8341 838.14 72.2924 Q833.36 73.7508 828.013 73.7508 Q814.28 73.7508 806.381 65.3654 Q798.482 56.9395 798.482 42.3968 Q798.482 27.8135 806.381 19.4281 Q814.28 11.0023 828.013 11.0023 Q833.441 11.0023 838.221 12.4606 Q843.042 13.8784 847.254 16.7545 Z" fill="#000000" fill-rule="evenodd" fill-opacity="1" /><path clip-path="url(#clip540)" d="M877.15 32.4315 Q871.155 32.4315 867.671 37.1306 Q864.187 41.7891 864.187 49.9314 Q864.187 58.0738 867.631 62.7728 Q871.114 67.4314 877.15 67.4314 Q883.105 67.4314 886.589 62.7323 Q890.073 58.0333 890.073 49.9314 Q890.073 41.8701 886.589 37.1711 Q883.105 32.4315 877.15 32.4315 M877.15 26.1121 Q886.872 26.1121 892.422 32.4315 Q897.972 38.7509 897.972 49.9314 Q897.972 61.0714 892.422 67.4314 Q886.872 73.7508 877.15 73.7508 Q867.387 73.7508 861.838 67.4314 Q856.329 61.0714 856.329 49.9314 Q856.329 38.7509 861.838 32.4315 Q867.387 26.1121 877.15 26.1121 Z" fill="#000000" fill-rule="evenodd" fill-opacity="1" /><path clip-path="url(#clip540)" d="M927.908 32.4315 Q921.913 32.4315 918.429 37.1306 Q914.945 41.7891 914.945 49.9314 Q914.945 58.0738 918.388 62.7728 Q921.872 67.4314 927.908 67.4314 Q933.863 67.4314 937.347 62.7323 Q940.83 58.0333 940.83 49.9314 Q940.83 41.8701 937.347 37.1711 Q933.863 32.4315 927.908 32.4315 M927.908 26.1121 Q937.63 26.1121 943.18 32.4315 Q948.73 38.7509 948.73 49.9314 Q948.73 61.0714 943.18 67.4314 Q937.63 73.7508 927.908 73.7508 Q918.145 73.7508 912.596 67.4314 Q907.086 61.0714 907.086 49.9314 Q907.086 38.7509 912.596 32.4315 Q918.145 26.1121 927.908 26.1121 Z" fill="#000000" fill-rule="evenodd" fill-opacity="1" /><path clip-path="url(#clip540)" d="M987.375 34.1734 Q986.119 33.4443 984.621 33.1202 Q983.162 32.7556 981.38 32.7556 Q975.061 32.7556 971.658 36.8875 Q968.296 40.9789 968.296 48.6757 L968.296 72.576 L960.801 72.576 L960.801 27.2059 L968.296 27.2059 L968.296 34.2544 Q970.645 30.1225 974.412 28.1376 Q978.18 26.1121 983.567 26.1121 Q984.337 26.1121 985.269 26.2337 Q986.2 26.3147 987.335 26.5172 L987.375 34.1734 Z" fill="#000000" fill-rule="evenodd" fill-opacity="1" /><path clip-path="url(#clip540)" d="M1023.59 34.0924 L1023.59 9.54393 L1031.04 9.54393 L1031.04 72.576 L1023.59 72.576 L1023.59 65.7705 Q1021.24 69.8214 1017.64 71.8063 Q1014.07 73.7508 1009.05 73.7508 Q1000.82 73.7508 995.639 67.1883 Q990.494 60.6258 990.494 49.9314 Q990.494 39.2371 995.639 32.6746 Q1000.82 26.1121 1009.05 26.1121 Q1014.07 26.1121 1017.64 28.0971 Q1021.24 30.0415 1023.59 34.0924 M998.191 49.9314 Q998.191 58.1548 1001.55 62.8538 Q1004.96 67.5124 1010.87 67.5124 Q1016.78 67.5124 1020.19 62.8538 Q1023.59 58.1548 1023.59 49.9314 Q1023.59 41.7081 1020.19 37.0496 Q1016.78 32.3505 1010.87 32.3505 Q1004.96 32.3505 1001.55 37.0496 Q998.191 41.7081 998.191 49.9314 Z" fill="#000000" fill-rule="evenodd" fill-opacity="1" /><path clip-path="url(#clip540)" d="M1046.4 27.2059 L1053.85 27.2059 L1053.85 72.576 L1046.4 72.576 L1046.4 27.2059 M1046.4 9.54393 L1053.85 9.54393 L1053.85 18.9825 L1046.4 18.9825 L1046.4 9.54393 Z" fill="#000000" fill-rule="evenodd" fill-opacity="1" /><path clip-path="url(#clip540)" d="M1107.16 45.1919 L1107.16 72.576 L1099.71 72.576 L1099.71 45.4349 Q1099.71 38.994 1097.2 35.7938 Q1094.68 32.5936 1089.66 32.5936 Q1083.62 32.5936 1080.14 36.4419 Q1076.66 40.2903 1076.66 46.9338 L1076.66 72.576 L1069.16 72.576 L1069.16 27.2059 L1076.66 27.2059 L1076.66 34.2544 Q1079.33 30.163 1082.94 28.1376 Q1086.58 26.1121 1091.32 26.1121 Q1099.14 26.1121 1103.15 30.9732 Q1107.16 35.7938 1107.16 45.1919 Z" fill="#000000" fill-rule="evenodd" fill-opacity="1" /><path clip-path="url(#clip540)" d="M1142.65 49.7694 Q1133.61 49.7694 1130.13 51.8354 Q1126.65 53.9013 1126.65 58.8839 Q1126.65 62.8538 1129.24 65.2034 Q1131.87 67.5124 1136.37 67.5124 Q1142.57 67.5124 1146.29 63.1374 Q1150.06 58.7219 1150.06 51.4303 L1150.06 49.7694 L1142.65 49.7694 M1157.51 46.6907 L1157.51 72.576 L1150.06 72.576 L1150.06 65.6895 Q1147.51 69.8214 1143.7 71.8063 Q1139.89 73.7508 1134.38 73.7508 Q1127.42 73.7508 1123.28 69.8619 Q1119.19 65.9325 1119.19 59.3701 Q1119.19 51.7138 1124.3 47.825 Q1129.44 43.9361 1139.61 43.9361 L1150.06 43.9361 L1150.06 43.2069 Q1150.06 38.0623 1146.66 35.2672 Q1143.29 32.4315 1137.18 32.4315 Q1133.29 32.4315 1129.6 33.3632 Q1125.92 34.295 1122.51 36.1584 L1122.51 29.2718 Q1126.6 27.692 1130.45 26.9223 Q1134.3 26.1121 1137.95 26.1121 Q1147.79 26.1121 1152.65 31.2163 Q1157.51 36.3204 1157.51 46.6907 Z" fill="#000000" fill-rule="evenodd" fill-opacity="1" /><path clip-path="url(#clip540)" d="M1180.24 14.324 L1180.24 27.2059 L1195.59 27.2059 L1195.59 32.9987 L1180.24 32.9987 L1180.24 57.6282 Q1180.24 63.1779 1181.74 64.7578 Q1183.28 66.3376 1187.94 66.3376 L1195.59 66.3376 L1195.59 72.576 L1187.94 72.576 Q1179.31 72.576 1176.03 69.3758 Q1172.74 66.1351 1172.74 57.6282 L1172.74 32.9987 L1167.28 32.9987 L1167.28 27.2059 L1172.74 27.2059 L1172.74 14.324 L1180.24 14.324 Z" fill="#000000" fill-rule="evenodd" fill-opacity="1" /><path clip-path="url(#clip540)" d="M1244.2 48.0275 L1244.2 51.6733 L1209.93 51.6733 Q1210.42 59.3701 1214.55 63.421 Q1218.72 67.4314 1226.14 67.4314 Q1230.43 67.4314 1234.44 66.3781 Q1238.49 65.3249 1242.46 63.2184 L1242.46 70.267 Q1238.45 71.9684 1234.24 72.8596 Q1230.02 73.7508 1225.69 73.7508 Q1214.83 73.7508 1208.47 67.4314 Q1202.15 61.1119 1202.15 50.3365 Q1202.15 39.1965 1208.15 32.6746 Q1214.19 26.1121 1224.39 26.1121 Q1233.55 26.1121 1238.86 32.0264 Q1244.2 37.9003 1244.2 48.0275 M1236.75 45.84 Q1236.67 39.7232 1233.31 36.0774 Q1229.98 32.4315 1224.47 32.4315 Q1218.24 32.4315 1214.47 35.9558 Q1210.74 39.4801 1210.17 45.8805 L1236.75 45.84 Z" fill="#000000" fill-rule="evenodd" fill-opacity="1" /><path clip-path="url(#clip540)" d="M1311.73 28.5427 L1311.73 35.5912 Q1308.57 33.9709 1305.17 33.1607 Q1301.77 32.3505 1298.12 32.3505 Q1292.57 32.3505 1289.78 34.0519 Q1287.02 35.7533 1287.02 39.156 Q1287.02 41.7486 1289.01 43.2475 Q1290.99 44.7058 1296.99 46.0426 L1299.54 46.6097 Q1307.48 48.3111 1310.8 51.4303 Q1314.16 54.509 1314.16 60.0587 Q1314.16 66.3781 1309.14 70.0644 Q1304.16 73.7508 1295.41 73.7508 Q1291.76 73.7508 1287.79 73.0216 Q1283.86 72.3329 1279.49 70.9151 L1279.49 63.2184 Q1283.62 65.3654 1287.63 66.4591 Q1291.64 67.5124 1295.57 67.5124 Q1300.83 67.5124 1303.67 65.73 Q1306.51 63.9071 1306.51 60.6258 Q1306.51 57.5877 1304.44 55.9673 Q1302.41 54.3469 1295.49 52.8481 L1292.89 52.2405 Q1285.97 50.7821 1282.89 47.7845 Q1279.81 44.7463 1279.81 39.4801 Q1279.81 33.0797 1284.35 29.5959 Q1288.88 26.1121 1297.23 26.1121 Q1301.36 26.1121 1305.01 26.7198 Q1308.65 27.3274 1311.73 28.5427 Z" fill="#000000" fill-rule="evenodd" fill-opacity="1" /><path clip-path="url(#clip540)" d="M1333.24 65.7705 L1333.24 89.8329 L1325.75 89.8329 L1325.75 27.2059 L1333.24 27.2059 L1333.24 34.0924 Q1335.59 30.0415 1339.16 28.0971 Q1342.76 26.1121 1347.74 26.1121 Q1356.01 26.1121 1361.15 32.6746 Q1366.34 39.2371 1366.34 49.9314 Q1366.34 60.6258 1361.15 67.1883 Q1356.01 73.7508 1347.74 73.7508 Q1342.76 73.7508 1339.16 71.8063 Q1335.59 69.8214 1333.24 65.7705 M1358.6 49.9314 Q1358.6 41.7081 1355.2 37.0496 Q1351.84 32.3505 1345.92 32.3505 Q1340.01 32.3505 1336.6 37.0496 Q1333.24 41.7081 1333.24 49.9314 Q1333.24 58.1548 1336.6 62.8538 Q1340.01 67.5124 1345.92 67.5124 Q1351.84 67.5124 1355.2 62.8538 Q1358.6 58.1548 1358.6 49.9314 Z" fill="#000000" fill-rule="evenodd" fill-opacity="1" /><path clip-path="url(#clip540)" d="M1399.31 49.7694 Q1390.28 49.7694 1386.79 51.8354 Q1383.31 53.9013 1383.31 58.8839 Q1383.31 62.8538 1385.9 65.2034 Q1388.54 67.5124 1393.03 67.5124 Q1399.23 67.5124 1402.96 63.1374 Q1406.72 58.7219 1406.72 51.4303 L1406.72 49.7694 L1399.31 49.7694 M1414.18 46.6907 L1414.18 72.576 L1406.72 72.576 L1406.72 65.6895 Q1404.17 69.8214 1400.36 71.8063 Q1396.56 73.7508 1391.05 73.7508 Q1384.08 73.7508 1379.95 69.8619 Q1375.86 65.9325 1375.86 59.3701 Q1375.86 51.7138 1380.96 47.825 Q1386.11 43.9361 1396.27 43.9361 L1406.72 43.9361 L1406.72 43.2069 Q1406.72 38.0623 1403.32 35.2672 Q1399.96 32.4315 1393.84 32.4315 Q1389.95 32.4315 1386.27 33.3632 Q1382.58 34.295 1379.18 36.1584 L1379.18 29.2718 Q1383.27 27.692 1387.12 26.9223 Q1390.97 26.1121 1394.61 26.1121 Q1404.46 26.1121 1409.32 31.2163 Q1414.18 36.3204 1414.18 46.6907 Z" fill="#000000" fill-rule="evenodd" fill-opacity="1" /><path clip-path="url(#clip540)" d="M1462.18 28.9478 L1462.18 35.9153 Q1459.02 34.1734 1455.82 33.3227 Q1452.66 32.4315 1449.42 32.4315 Q1442.17 32.4315 1438.16 37.0496 Q1434.15 41.6271 1434.15 49.9314 Q1434.15 58.2358 1438.16 62.8538 Q1442.17 67.4314 1449.42 67.4314 Q1452.66 67.4314 1455.82 66.5807 Q1459.02 65.6895 1462.18 63.9476 L1462.18 70.8341 Q1459.06 72.2924 1455.7 73.0216 Q1452.38 73.7508 1448.61 73.7508 Q1438.36 73.7508 1432.33 67.3098 Q1426.29 60.8689 1426.29 49.9314 Q1426.29 38.832 1432.37 32.472 Q1438.48 26.1121 1449.1 26.1121 Q1452.54 26.1121 1455.82 26.8413 Q1459.1 27.5299 1462.18 28.9478 Z" fill="#000000" fill-rule="evenodd" fill-opacity="1" /><path clip-path="url(#clip540)" d="M1513.95 48.0275 L1513.95 51.6733 L1479.68 51.6733 Q1480.17 59.3701 1484.3 63.421 Q1488.47 67.4314 1495.89 67.4314 Q1500.18 67.4314 1504.19 66.3781 Q1508.24 65.3249 1512.21 63.2184 L1512.21 70.267 Q1508.2 71.9684 1503.99 72.8596 Q1499.77 73.7508 1495.44 73.7508 Q1484.58 73.7508 1478.22 67.4314 Q1471.9 61.1119 1471.9 50.3365 Q1471.9 39.1965 1477.9 32.6746 Q1483.94 26.1121 1494.14 26.1121 Q1503.3 26.1121 1508.61 32.0264 Q1513.95 37.9003 1513.95 48.0275 M1506.5 45.84 Q1506.42 39.7232 1503.06 36.0774 Q1499.73 32.4315 1494.22 32.4315 Q1487.99 32.4315 1484.22 35.9558 Q1480.49 39.4801 1479.92 45.8805 L1506.5 45.84 Z" fill="#000000" fill-rule="evenodd" fill-opacity="1" /><path clip-path="url(#clip540)" d="M1559.77 65.7705 L1559.77 89.8329 L1552.27 89.8329 L1552.27 27.2059 L1559.77 27.2059 L1559.77 34.0924 Q1562.12 30.0415 1565.68 28.0971 Q1569.29 26.1121 1574.27 26.1121 Q1582.53 26.1121 1587.68 32.6746 Q1592.86 39.2371 1592.86 49.9314 Q1592.86 60.6258 1587.68 67.1883 Q1582.53 73.7508 1574.27 73.7508 Q1569.29 73.7508 1565.68 71.8063 Q1562.12 69.8214 1559.77 65.7705 M1585.13 49.9314 Q1585.13 41.7081 1581.72 37.0496 Q1578.36 32.3505 1572.45 32.3505 Q1566.53 32.3505 1563.13 37.0496 Q1559.77 41.7081 1559.77 49.9314 Q1559.77 58.1548 1563.13 62.8538 Q1566.53 67.5124 1572.45 67.5124 Q1578.36 67.5124 1581.72 62.8538 Q1585.13 58.1548 1585.13 49.9314 Z" fill="#000000" fill-rule="evenodd" fill-opacity="1" /><path clip-path="url(#clip540)" d="M1605.22 9.54393 L1612.67 9.54393 L1612.67 72.576 L1605.22 72.576 L1605.22 9.54393 Z" fill="#000000" fill-rule="evenodd" fill-opacity="1" /><path clip-path="url(#clip540)" d="M1645.85 32.4315 Q1639.85 32.4315 1636.37 37.1306 Q1632.89 41.7891 1632.89 49.9314 Q1632.89 58.0738 1636.33 62.7728 Q1639.81 67.4314 1645.85 67.4314 Q1651.8 67.4314 1655.29 62.7323 Q1658.77 58.0333 1658.77 49.9314 Q1658.77 41.8701 1655.29 37.1711 Q1651.8 32.4315 1645.85 32.4315 M1645.85 26.1121 Q1655.57 26.1121 1661.12 32.4315 Q1666.67 38.7509 1666.67 49.9314 Q1666.67 61.0714 1661.12 67.4314 Q1655.57 73.7508 1645.85 73.7508 Q1636.09 73.7508 1630.54 67.4314 Q1625.03 61.0714 1625.03 49.9314 Q1625.03 38.7509 1630.54 32.4315 Q1636.09 26.1121 1645.85 26.1121 Z" fill="#000000" fill-rule="evenodd" fill-opacity="1" /><path clip-path="url(#clip540)" d="M1686.4 14.324 L1686.4 27.2059 L1701.75 27.2059 L1701.75 32.9987 L1686.4 32.9987 L1686.4 57.6282 Q1686.4 63.1779 1687.9 64.7578 Q1689.44 66.3376 1694.1 66.3376 L1701.75 66.3376 L1701.75 72.576 L1694.1 72.576 Q1685.47 72.576 1682.19 69.3758 Q1678.91 66.1351 1678.91 57.6282 L1678.91 32.9987 L1673.44 32.9987 L1673.44 27.2059 L1678.91 27.2059 L1678.91 14.324 L1686.4 14.324 Z" fill="#000000" fill-rule="evenodd" fill-opacity="1" /><circle clip-path="url(#clip542)" cx="935.589" cy="805.379" r="133" fill="#ff0000" fill-rule="evenodd" fill-opacity="1" stroke="#000000" stroke-opacity="1" stroke-width="3.2"/>
<circle clip-path="url(#clip542)" cx="1013.41" cy="511.793" r="133" fill="#ff0000" fill-rule="evenodd" fill-opacity="1" stroke="#000000" stroke-opacity="1" stroke-width="3.2"/>
<circle clip-path="url(#clip542)" cx="1158.61" cy="918.821" r="133" fill="#ff0000" fill-rule="evenodd" fill-opacity="1" stroke="#000000" stroke-opacity="1" stroke-width="3.2"/>
<circle clip-path="url(#clip542)" cx="1220.3" cy="623.69" r="133" fill="#0000ff" fill-rule="evenodd" fill-opacity="1" stroke="#000000" stroke-opacity="1" stroke-width="3.2"/>
<circle clip-path="url(#clip542)" cx="1022.33" cy="1030.73" r="133" fill="#0000ff" fill-rule="evenodd" fill-opacity="1" stroke="#000000" stroke-opacity="1" stroke-width="3.2"/>
<circle clip-path="url(#clip542)" cx="1077.38" cy="290.4" r="133" fill="#0000ff" fill-rule="evenodd" fill-opacity="1" stroke="#000000" stroke-opacity="1" stroke-width="3.2"/>
<path clip-path="url(#clip540)" d="
M1560.63 324.425 L1858.1 324.425 L1858.1 168.905 L1560.63 168.905  Z
  " fill="#ffffff" fill-rule="evenodd" fill-opacity="1"/>
<polyline clip-path="url(#clip540)" style="stroke:#000000; stroke-linecap:butt; stroke-linejoin:round; stroke-width:4; stroke-opacity:1; fill:none" points="
  1560.63,324.425 1858.1,324.425 1858.1,168.905 1560.63,168.905 1560.63,324.425 
  "/>
<circle clip-path="url(#clip540)" cx="1658.65" cy="220.745" r="23" fill="#ff0000" fill-rule="evenodd" fill-opacity="1" stroke="#000000" stroke-opacity="1" stroke-width="0.553514"/>
<path clip-path="url(#clip540)" d="M1770.5 240.432 Q1768.7 245.062 1766.98 246.474 Q1765.27 247.886 1762.4 247.886 L1759 247.886 L1759 244.321 L1761.5 244.321 Q1763.26 244.321 1764.23 243.488 Q1765.2 242.654 1766.38 239.552 L1767.15 237.608 L1756.66 212.099 L1761.17 212.099 L1769.27 232.377 L1777.38 212.099 L1781.89 212.099 L1770.5 240.432 Z" fill="#000000" fill-rule="evenodd" fill-opacity="1" /><path clip-path="url(#clip540)" d="M1789.18 234.089 L1796.82 234.089 L1796.82 207.724 L1788.51 209.391 L1788.51 205.131 L1796.77 203.465 L1801.45 203.465 L1801.45 234.089 L1809.09 234.089 L1809.09 238.025 L1789.18 238.025 L1789.18 234.089 Z" fill="#000000" fill-rule="evenodd" fill-opacity="1" /><circle clip-path="url(#clip540)" cx="1658.65" cy="272.585" r="23" fill="#0000ff" fill-rule="evenodd" fill-opacity="1" stroke="#000000" stroke-opacity="1" stroke-width="0.553514"/>
<path clip-path="url(#clip540)" d="M1770.5 292.272 Q1768.7 296.902 1766.98 298.314 Q1765.27 299.726 1762.4 299.726 L1759 299.726 L1759 296.161 L1761.5 296.161 Q1763.26 296.161 1764.23 295.328 Q1765.2 294.494 1766.38 291.392 L1767.15 289.448 L1756.66 263.939 L1761.17 263.939 L1769.27 284.217 L1777.38 263.939 L1781.89 263.939 L1770.5 292.272 Z" fill="#000000" fill-rule="evenodd" fill-opacity="1" /><path clip-path="url(#clip540)" d="M1792.4 285.929 L1808.72 285.929 L1808.72 289.865 L1786.77 289.865 L1786.77 285.929 Q1789.44 283.175 1794.02 278.545 Q1798.63 273.893 1799.81 272.55 Q1802.05 270.027 1802.93 268.291 Q1803.83 266.531 1803.83 264.842 Q1803.83 262.087 1801.89 260.351 Q1799.97 258.615 1796.87 258.615 Q1794.67 258.615 1792.21 259.379 Q1789.78 260.143 1787.01 261.694 L1787.01 256.971 Q1789.83 255.837 1792.28 255.258 Q1794.74 254.68 1796.77 254.68 Q1802.14 254.68 1805.34 257.365 Q1808.53 260.05 1808.53 264.541 Q1808.53 266.67 1807.72 268.592 Q1806.94 270.49 1804.83 273.082 Q1804.25 273.754 1801.15 276.971 Q1798.05 280.166 1792.4 285.929 Z" fill="#000000" fill-rule="evenodd" fill-opacity="1" /></svg>
