<?xml version="1.0" encoding="utf-8"?>
<svg xmlns="http://www.w3.org/2000/svg" xmlns:xlink="http://www.w3.org/1999/xlink" width="600" height="400" viewBox="0 0 2400 1600">
<defs>
  <clipPath id="clip750">
    <rect x="0" y="0" width="2400" height="1600"/>
  </clipPath>
</defs>
<path clip-path="url(#clip750)" d="
M0 1600 L2400 1600 L2400 0 L0 0  Z
  " fill="#ffffff" fill-rule="evenodd" fill-opacity="1"/>
<defs>
  <clipPath id="clip751">
    <rect x="480" y="0" width="1681" height="1600"/>
  </clipPath>
</defs>
<path clip-path="url(#clip750)" d="
M170.857 1508.11 L2352.76 1508.11 L2352.76 47.2441 L170.857 47.2441  Z
  " fill="#ffffff" fill-rule="evenodd" fill-opacity="1"/>
<defs>
  <clipPath id="clip752">
    <rect x="170" y="47" width="2183" height="1462"/>
  </clipPath>
</defs>
<polyline clip-path="url(#clip752)" style="stroke:#000000; stroke-linecap:butt; stroke-linejoin:round; stroke-width:2; stroke-opacity:0.1; fill:none" points="
  330.096,1508.11 330.096,47.2441 
  "/>
<polyline clip-path="url(#clip752)" style="stroke:#000000; stroke-linecap:butt; stroke-linejoin:round; stroke-width:2; stroke-opacity:0.1; fill:none" points="
  428.17,1508.11 428.17,47.2441 
  "/>
<polyline clip-path="url(#clip752)" style="stroke:#000000; stroke-linecap:butt; stroke-linejoin:round; stroke-width:2; stroke-opacity:0.1; fill:none" points="
  526.245,1508.11 526.245,47.2441 
  "/>
<polyline clip-path="url(#clip752)" style="stroke:#000000; stroke-linecap:butt; stroke-linejoin:round; stroke-width:2; stroke-opacity:0.1; fill:none" points="
  624.32,1508.11 624.32,47.2441 
  "/>
<polyline clip-path="url(#clip752)" style="stroke:#000000; stroke-linecap:butt; stroke-linejoin:round; stroke-width:2; stroke-opacity:0.1; fill:none" points="
  722.395,1508.11 722.395,47.2441 
  "/>
<polyline clip-path="url(#clip752)" style="stroke:#000000; stroke-linecap:butt; stroke-linejoin:round; stroke-width:2; stroke-opacity:0.1; fill:none" points="
  820.47,1508.11 820.47,47.2441 
  "/>
<polyline clip-path="url(#clip752)" style="stroke:#000000; stroke-linecap:butt; stroke-linejoin:round; stroke-width:2; stroke-opacity:0.1; fill:none" points="
  918.545,1508.11 918.545,47.2441 
  "/>
<polyline clip-path="url(#clip752)" style="stroke:#000000; stroke-linecap:butt; stroke-linejoin:round; stroke-width:2; stroke-opacity:0.1; fill:none" points="
  1016.62,1508.11 1016.62,47.2441 
  "/>
<polyline clip-path="url(#clip752)" style="stroke:#000000; stroke-linecap:butt; stroke-linejoin:round; stroke-width:2; stroke-opacity:0.1; fill:none" points="
  1114.69,1508.11 1114.69,47.2441 
  "/>
<polyline clip-path="url(#clip752)" style="stroke:#000000; stroke-linecap:butt; stroke-linejoin:round; stroke-width:2; stroke-opacity:0.1; fill:none" points="
  1212.77,1508.11 1212.77,47.2441 
  "/>
<polyline clip-path="url(#clip752)" style="stroke:#000000; stroke-linecap:butt; stroke-linejoin:round; stroke-width:2; stroke-opacity:0.1; fill:none" points="
  1310.84,1508.11 1310.84,47.2441 
  "/>
<polyline clip-path="url(#clip752)" style="stroke:#000000; stroke-linecap:butt; stroke-linejoin:round; stroke-width:2; stroke-opacity:0.1; fill:none" points="
  1408.92,1508.11 1408.92,47.2441 
  "/>
<polyline clip-path="url(#clip752)" style="stroke:#000000; stroke-linecap:butt; stroke-linejoin:round; stroke-width:2; stroke-opacity:0.1; fill:none" points="
  1506.99,1508.11 1506.99,47.2441 
  "/>
<polyline clip-path="url(#clip752)" style="stroke:#000000; stroke-linecap:butt; stroke-linejoin:round; stroke-width:2; stroke-opacity:0.1; fill:none" points="
  1605.07,1508.11 1605.07,47.2441 
  "/>
<polyline clip-path="url(#clip752)" style="stroke:#000000; stroke-linecap:butt; stroke-linejoin:round; stroke-width:2; stroke-opacity:0.1; fill:none" points="
  1703.14,1508.11 1703.14,47.2441 
  "/>
<polyline clip-path="url(#clip752)" style="stroke:#000000; stroke-linecap:butt; stroke-linejoin:round; stroke-width:2; stroke-opacity:0.1; fill:none" points="
  1801.22,1508.11 1801.22,47.2441 
  "/>
<polyline clip-path="url(#clip752)" style="stroke:#000000; stroke-linecap:butt; stroke-linejoin:round; stroke-width:2; stroke-opacity:0.1; fill:none" points="
  1899.29,1508.11 1899.29,47.2441 
  "/>
<polyline clip-path="url(#clip752)" style="stroke:#000000; stroke-linecap:butt; stroke-linejoin:round; stroke-width:2; stroke-opacity:0.1; fill:none" points="
  1997.37,1508.11 1997.37,47.2441 
  "/>
<polyline clip-path="url(#clip752)" style="stroke:#000000; stroke-linecap:butt; stroke-linejoin:round; stroke-width:2; stroke-opacity:0.1; fill:none" points="
  2095.44,1508.11 2095.44,47.2441 
  "/>
<polyline clip-path="url(#clip752)" style="stroke:#000000; stroke-linecap:butt; stroke-linejoin:round; stroke-width:2; stroke-opacity:0.1; fill:none" points="
  2193.52,1508.11 2193.52,47.2441 
  "/>
<polyline clip-path="url(#clip750)" style="stroke:#000000; stroke-linecap:butt; stroke-linejoin:round; stroke-width:4; stroke-opacity:1; fill:none" points="
  170.857,1508.11 2352.76,1508.11 
  "/>
<polyline clip-path="url(#clip750)" style="stroke:#000000; stroke-linecap:butt; stroke-linejoin:round; stroke-width:4; stroke-opacity:1; fill:none" points="
  330.096,1508.11 330.096,1490.58 
  "/>
<polyline clip-path="url(#clip750)" style="stroke:#000000; stroke-linecap:butt; stroke-linejoin:round; stroke-width:4; stroke-opacity:1; fill:none" points="
  428.17,1508.11 428.17,1490.58 
  "/>
<polyline clip-path="url(#clip750)" style="stroke:#000000; stroke-linecap:butt; stroke-linejoin:round; stroke-width:4; stroke-opacity:1; fill:none" points="
  526.245,1508.11 526.245,1490.58 
  "/>
<polyline clip-path="url(#clip750)" style="stroke:#000000; stroke-linecap:butt; stroke-linejoin:round; stroke-width:4; stroke-opacity:1; fill:none" points="
  624.32,1508.11 624.32,1490.58 
  "/>
<polyline clip-path="url(#clip750)" style="stroke:#000000; stroke-linecap:butt; stroke-linejoin:round; stroke-width:4; stroke-opacity:1; fill:none" points="
  722.395,1508.11 722.395,1490.58 
  "/>
<polyline clip-path="url(#clip750)" style="stroke:#000000; stroke-linecap:butt; stroke-linejoin:round; stroke-width:4; stroke-opacity:1; fill:none" points="
  820.47,1508.11 820.47,1490.58 
  "/>
<polyline clip-path="url(#clip750)" style="stroke:#000000; stroke-linecap:butt; stroke-linejoin:round; stroke-width:4; stroke-opacity:1; fill:none" points="
  918.545,1508.11 918.545,1490.58 
  "/>
<polyline clip-path="url(#clip750)" style="stroke:#000000; stroke-linecap:butt; stroke-linejoin:round; stroke-width:4; stroke-opacity:1; fill:none" points="
  1016.62,1508.11 1016.62,1490.58 
  "/>
<polyline clip-path="url(#clip750)" style="stroke:#000000; stroke-linecap:butt; stroke-linejoin:round; stroke-width:4; stroke-opacity:1; fill:none" points="
  1114.69,1508.11 1114.69,1490.58 
  "/>
<polyline clip-path="url(#clip750)" style="stroke:#000000; stroke-linecap:butt; stroke-linejoin:round; stroke-width:4; stroke-opacity:1; fill:none" points="
  1212.77,1508.11 1212.77,1490.58 
  "/>
<polyline clip-path="url(#clip750)" style="stroke:#000000; stroke-linecap:butt; stroke-linejoin:round; stroke-width:4; stroke-opacity:1; fill:none" points="
  1310.84,1508.11 1310.84,1490.58 
  "/>
<polyline clip-path="url(#clip750)" style="stroke:#000000; stroke-linecap:butt; stroke-linejoin:round; stroke-width:4; stroke-opacity:1; fill:none" points="
  1408.92,1508.11 1408.92,1490.58 
  "/>
<polyline clip-path="url(#clip750)" style="stroke:#000000; stroke-linecap:butt; stroke-linejoin:round; stroke-width:4; stroke-opacity:1; fill:none" points="
  1506.99,1508.11 1506.99,1490.58 
  "/>
<polyline clip-path="url(#clip750)" style="stroke:#000000; stroke-linecap:butt; stroke-linejoin:round; stroke-width:4; stroke-opacity:1; fill:none" points="
  1605.07,1508.11 1605.07,1490.58 
  "/>
<polyline clip-path="url(#clip750)" style="stroke:#000000; stroke-linecap:butt; stroke-linejoin:round; stroke-width:4; stroke-opacity:1; fill:none" points="
  1703.14,1508.11 1703.14,1490.58 
  "/>
<polyline clip-path="url(#clip750)" style="stroke:#000000; stroke-linecap:butt; stroke-linejoin:round; stroke-width:4; stroke-opacity:1; fill:none" points="
  1801.22,1508.11 1801.22,1490.58 
  "/>
<polyline clip-path="url(#clip750)" style="stroke:#000000; stroke-linecap:butt; stroke-linejoin:round; stroke-width:4; stroke-opacity:1; fill:none" points="
  1899.29,1508.11 1899.29,1490.58 
  "/>
<polyline clip-path="url(#clip750)" style="stroke:#000000; stroke-linecap:butt; stroke-linejoin:round; stroke-width:4; stroke-opacity:1; fill:none" points="
  1997.37,1508.11 1997.37,1490.58 
  "/>
<polyline clip-path="url(#clip750)" style="stroke:#000000; stroke-linecap:butt; stroke-linejoin:round; stroke-width:4; stroke-opacity:1; fill:none" points="
  2095.44,1508.11 2095.44,1490.58 
  "/>
<polyline clip-path="url(#clip750)" style="stroke:#000000; stroke-linecap:butt; stroke-linejoin:round; stroke-width:4; stroke-opacity:1; fill:none" points="
  2193.52,1508.11 2193.52,1490.58 
  "/>
<g clip-path="url(#clip750)">
<text style="fill:#000000; fill-opacity:1; font-family:Courier,Courier New,Lucida Sans Typewriter,Lucida Typewriter,monospace; font-size:22px; text-anchor:middle;" transform="rotate(0, 330.096, 1542.91)" x="330.096" y="1542.91">110100</text>
</g>
<g clip-path="url(#clip750)">
<text style="fill:#000000; fill-opacity:1; font-family:Courier,Courier New,Lucida Sans Typewriter,Lucida Typewriter,monospace; font-size:22px; text-anchor:middle;" transform="rotate(0, 428.17, 1542.91)" x="428.17" y="1542.91">010101</text>
</g>
<g clip-path="url(#clip750)">
<text style="fill:#000000; fill-opacity:1; font-family:Courier,Courier New,Lucida Sans Typewriter,Lucida Typewriter,monospace; font-size:22px; text-anchor:middle;" transform="rotate(0, 526.245, 1542.91)" x="526.245" y="1542.91">011100</text>
</g>
<g clip-path="url(#clip750)">
<text style="fill:#000000; fill-opacity:1; font-family:Courier,Courier New,Lucida Sans Typewriter,Lucida Typewriter,monospace; font-size:22px; text-anchor:middle;" transform="rotate(0, 624.32, 1542.91)" x="624.32" y="1542.91">110101</text>
</g>
<g clip-path="url(#clip750)">
<text style="fill:#000000; fill-opacity:1; font-family:Courier,Courier New,Lucida Sans Typewriter,Lucida Typewriter,monospace; font-size:22px; text-anchor:middle;" transform="rotate(0, 722.395, 1542.91)" x="722.395" y="1542.91">011000</text>
</g>
<g clip-path="url(#clip750)">
<text style="fill:#000000; fill-opacity:1; font-family:Courier,Courier New,Lucida Sans Typewriter,Lucida Typewriter,monospace; font-size:22px; text-anchor:middle;" transform="rotate(0, 820.47, 1542.91)" x="820.47" y="1542.91">100100</text>
</g>
<g clip-path="url(#clip750)">
<text style="fill:#000000; fill-opacity:1; font-family:Courier,Courier New,Lucida Sans Typewriter,Lucida Typewriter,monospace; font-size:22px; text-anchor:middle;" transform="rotate(0, 918.545, 1542.91)" x="918.545" y="1542.91">111100</text>
</g>
<g clip-path="url(#clip750)">
<text style="fill:#000000; fill-opacity:1; font-family:Courier,Courier New,Lucida Sans Typewriter,Lucida Typewriter,monospace; font-size:22px; text-anchor:middle;" transform="rotate(0, 1016.62, 1542.91)" x="1016.62" y="1542.91">010001</text>
</g>
<g clip-path="url(#clip750)">
<text style="fill:#000000; fill-opacity:1; font-family:Courier,Courier New,Lucida Sans Typewriter,Lucida Typewriter,monospace; font-size:22px; text-anchor:middle;" transform="rotate(0, 1114.69, 1542.91)" x="1114.69" y="1542.91">011101</text>
</g>
<g clip-path="url(#clip750)">
<text style="fill:#000000; fill-opacity:1; font-family:Courier,Courier New,Lucida Sans Typewriter,Lucida Typewriter,monospace; font-size:22px; text-anchor:middle;" transform="rotate(0, 1212.77, 1542.91)" x="1212.77" y="1542.91">001100</text>
</g>
<g clip-path="url(#clip750)">
<text style="fill:#000000; fill-opacity:1; font-family:Courier,Courier New,Lucida Sans Typewriter,Lucida Typewriter,monospace; font-size:22px; text-anchor:middle;" transform="rotate(0, 1310.84, 1542.91)" x="1310.84" y="1542.91">000101</text>
</g>
<g clip-path="url(#clip750)">
<text style="fill:#000000; fill-opacity:1; font-family:Courier,Courier New,Lucida Sans Typewriter,Lucida Typewriter,monospace; font-size:22px; text-anchor:middle;" transform="rotate(0, 1408.92, 1542.91)" x="1408.92" y="1542.91">110000</text>
</g>
<g clip-path="url(#clip750)">
<text style="fill:#000000; fill-opacity:1; font-family:Courier,Courier New,Lucida Sans Typewriter,Lucida Typewriter,monospace; font-size:22px; text-anchor:middle;" transform="rotate(0, 1506.99, 1542.91)" x="1506.99" y="1542.91">011001</text>
</g>
<g clip-path="url(#clip750)">
<text style="fill:#000000; fill-opacity:1; font-family:Courier,Courier New,Lucida Sans Typewriter,Lucida Typewriter,monospace; font-size:22px; text-anchor:middle;" transform="rotate(0, 1605.07, 1542.91)" x="1605.07" y="1542.91">010100</text>
</g>
<g clip-path="url(#clip750)">
<text style="fill:#000000; fill-opacity:1; font-family:Courier,Courier New,Lucida Sans Typewriter,Lucida Typewriter,monospace; font-size:22px; text-anchor:middle;" transform="rotate(0, 1703.14, 1542.91)" x="1703.14" y="1542.91">111000</text>
</g>
<g clip-path="url(#clip750)">
<text style="fill:#000000; fill-opacity:1; font-family:Courier,Courier New,Lucida Sans Typewriter,Lucida Typewriter,monospace; font-size:22px; text-anchor:middle;" transform="rotate(0, 1801.22, 1542.91)" x="1801.22" y="1542.91">000011</text>
</g>
<g clip-path="url(#clip750)">
<text style="fill:#000000; fill-opacity:1; font-family:Courier,Courier New,Lucida Sans Typewriter,Lucida Typewriter,monospace; font-size:22px; text-anchor:middle;" transform="rotate(0, 1899.29, 1542.91)" x="1899.29" y="1542.91">100010</text>
</g>
<g clip-path="url(#clip750)">
<text style="fill:#000000; fill-opacity:1; font-family:Courier,Courier New,Lucida Sans Typewriter,Lucida Typewriter,monospace; font-size:22px; text-anchor:middle;" transform="rotate(0, 1997.37, 1542.91)" x="1997.37" y="1542.91">101100</text>
</g>
<g clip-path="url(#clip750)">
<text style="fill:#000000; fill-opacity:1; font-family:Courier,Courier New,Lucida Sans Typewriter,Lucida Typewriter,monospace; font-size:22px; text-anchor:middle;" transform="rotate(0, 2095.44, 1542.91)" x="2095.44" y="1542.91">001101</text>
</g>
<g clip-path="url(#clip750)">
<text style="fill:#000000; fill-opacity:1; font-family:Courier,Courier New,Lucida Sans Typewriter,Lucida Typewriter,monospace; font-size:22px; text-anchor:middle;" transform="rotate(0, 2193.52, 1542.91)" x="2193.52" y="1542.91">010111</text>
</g>
<polyline clip-path="url(#clip752)" style="stroke:#000000; stroke-linecap:butt; stroke-linejoin:round; stroke-width:2; stroke-opacity:0.1; fill:none" points="
  170.857,1466.76 2352.76,1466.76 
  "/>
<polyline clip-path="url(#clip752)" style="stroke:#000000; stroke-linecap:butt; stroke-linejoin:round; stroke-width:2; stroke-opacity:0.1; fill:none" points="
  170.857,1029.25 2352.76,1029.25 
  "/>
<polyline clip-path="url(#clip752)" style="stroke:#000000; stroke-linecap:butt; stroke-linejoin:round; stroke-width:2; stroke-opacity:0.1; fill:none" points="
  170.857,591.733 2352.76,591.733 
  "/>
<polyline clip-path="url(#clip752)" style="stroke:#000000; stroke-linecap:butt; stroke-linejoin:round; stroke-width:2; stroke-opacity:0.1; fill:none" points="
  170.857,154.217 2352.76,154.217 
  "/>
<polyline clip-path="url(#clip750)" style="stroke:#000000; stroke-linecap:butt; stroke-linejoin:round; stroke-width:4; stroke-opacity:1; fill:none" points="
  170.857,1508.11 170.857,47.2441 
  "/>
<polyline clip-path="url(#clip750)" style="stroke:#000000; stroke-linecap:butt; stroke-linejoin:round; stroke-width:4; stroke-opacity:1; fill:none" points="
  170.857,1466.76 197.04,1466.76 
  "/>
<polyline clip-path="url(#clip750)" style="stroke:#000000; stroke-linecap:butt; stroke-linejoin:round; stroke-width:4; stroke-opacity:1; fill:none" points="
  170.857,1029.25 197.04,1029.25 
  "/>
<polyline clip-path="url(#clip750)" style="stroke:#000000; stroke-linecap:butt; stroke-linejoin:round; stroke-width:4; stroke-opacity:1; fill:none" points="
  170.857,591.733 197.04,591.733 
  "/>
<polyline clip-path="url(#clip750)" style="stroke:#000000; stroke-linecap:butt; stroke-linejoin:round; stroke-width:4; stroke-opacity:1; fill:none" points="
  170.857,154.217 197.04,154.217 
  "/>
<path clip-path="url(#clip750)" d="M122.913 1452.56 Q119.302 1452.56 117.473 1456.13 Q115.668 1459.67 115.668 1466.8 Q115.668 1473.91 117.473 1477.47 Q119.302 1481.01 122.913 1481.01 Q126.547 1481.01 128.353 1477.47 Q130.182 1473.91 130.182 1466.8 Q130.182 1459.67 128.353 1456.13 Q126.547 1452.56 122.913 1452.56 M122.913 1448.86 Q128.723 1448.86 131.779 1453.47 Q134.857 1458.05 134.857 1466.8 Q134.857 1475.53 131.779 1480.13 Q128.723 1484.72 122.913 1484.72 Q117.103 1484.72 114.024 1480.13 Q110.969 1475.53 110.969 1466.8 Q110.969 1458.05 114.024 1453.47 Q117.103 1448.86 122.913 1448.86 Z" fill="#000000" fill-rule="evenodd" fill-opacity="1" /><path clip-path="url(#clip750)" d="M53.3995 1042.59 L61.0384 1042.59 L61.0384 1016.23 L52.7282 1017.89 L52.7282 1013.63 L60.9921 1011.97 L65.668 1011.97 L65.668 1042.59 L73.3068 1042.59 L73.3068 1046.53 L53.3995 1046.53 L53.3995 1042.59 Z" fill="#000000" fill-rule="evenodd" fill-opacity="1" /><path clip-path="url(#clip750)" d="M92.7512 1015.05 Q89.1401 1015.05 87.3114 1018.61 Q85.5058 1022.15 85.5058 1029.28 Q85.5058 1036.39 87.3114 1039.95 Q89.1401 1043.5 92.7512 1043.5 Q96.3854 1043.5 98.1909 1039.95 Q100.02 1036.39 100.02 1029.28 Q100.02 1022.15 98.1909 1018.61 Q96.3854 1015.05 92.7512 1015.05 M92.7512 1011.34 Q98.5613 1011.34 101.617 1015.95 Q104.696 1020.53 104.696 1029.28 Q104.696 1038.01 101.617 1042.62 Q98.5613 1047.2 92.7512 1047.2 Q86.941 1047.2 83.8623 1042.62 Q80.8068 1038.01 80.8068 1029.28 Q80.8068 1020.53 83.8623 1015.95 Q86.941 1011.34 92.7512 1011.34 Z" fill="#000000" fill-rule="evenodd" fill-opacity="1" /><path clip-path="url(#clip750)" d="M122.913 1015.05 Q119.302 1015.05 117.473 1018.61 Q115.668 1022.15 115.668 1029.28 Q115.668 1036.39 117.473 1039.95 Q119.302 1043.5 122.913 1043.5 Q126.547 1043.5 128.353 1039.95 Q130.182 1036.39 130.182 1029.28 Q130.182 1022.15 128.353 1018.61 Q126.547 1015.05 122.913 1015.05 M122.913 1011.34 Q128.723 1011.34 131.779 1015.95 Q134.857 1020.53 134.857 1029.28 Q134.857 1038.01 131.779 1042.62 Q128.723 1047.2 122.913 1047.2 Q117.103 1047.2 114.024 1042.62 Q110.969 1038.01 110.969 1029.28 Q110.969 1020.53 114.024 1015.95 Q117.103 1011.34 122.913 1011.34 Z" fill="#000000" fill-rule="evenodd" fill-opacity="1" /><path clip-path="url(#clip750)" d="M56.6171 605.077 L72.9365 605.077 L72.9365 609.013 L50.9921 609.013 L50.9921 605.077 Q53.6541 602.323 58.2375 597.693 Q62.8439 593.04 64.0245 591.698 Q66.2698 589.175 67.1494 587.439 Q68.0522 585.679 68.0522 583.99 Q68.0522 581.235 66.1078 579.499 Q64.1865 577.763 61.0847 577.763 Q58.8856 577.763 56.4319 578.527 Q54.0014 579.29 51.2236 580.841 L51.2236 576.119 Q54.0477 574.985 56.5014 574.406 Q58.955 573.828 60.9921 573.828 Q66.3624 573.828 69.5568 576.513 Q72.7513 579.198 72.7513 583.689 Q72.7513 585.818 71.9411 587.739 Q71.1541 589.638 69.0476 592.23 Q68.4689 592.901 65.367 596.119 Q62.2652 599.313 56.6171 605.077 Z" fill="#000000" fill-rule="evenodd" fill-opacity="1" /><path clip-path="url(#clip750)" d="M92.7512 577.531 Q89.1401 577.531 87.3114 581.096 Q85.5058 584.638 85.5058 591.767 Q85.5058 598.874 87.3114 602.438 Q89.1401 605.98 92.7512 605.98 Q96.3854 605.98 98.1909 602.438 Q100.02 598.874 100.02 591.767 Q100.02 584.638 98.1909 581.096 Q96.3854 577.531 92.7512 577.531 M92.7512 573.828 Q98.5613 573.828 101.617 578.434 Q104.696 583.017 104.696 591.767 Q104.696 600.494 101.617 605.1 Q98.5613 609.684 92.7512 609.684 Q86.941 609.684 83.8623 605.1 Q80.8068 600.494 80.8068 591.767 Q80.8068 583.017 83.8623 578.434 Q86.941 573.828 92.7512 573.828 Z" fill="#000000" fill-rule="evenodd" fill-opacity="1" /><path clip-path="url(#clip750)" d="M122.913 577.531 Q119.302 577.531 117.473 581.096 Q115.668 584.638 115.668 591.767 Q115.668 598.874 117.473 602.438 Q119.302 605.98 122.913 605.98 Q126.547 605.98 128.353 602.438 Q130.182 598.874 130.182 591.767 Q130.182 584.638 128.353 581.096 Q126.547 577.531 122.913 577.531 M122.913 573.828 Q128.723 573.828 131.779 578.434 Q134.857 583.017 134.857 591.767 Q134.857 600.494 131.779 605.1 Q128.723 609.684 122.913 609.684 Q117.103 609.684 114.024 605.1 Q110.969 600.494 110.969 591.767 Q110.969 583.017 114.024 578.434 Q117.103 573.828 122.913 573.828 Z" fill="#000000" fill-rule="evenodd" fill-opacity="1" /><path clip-path="url(#clip750)" d="M66.7559 152.863 Q70.1124 153.58 71.9874 155.849 Q73.8855 158.117 73.8855 161.45 Q73.8855 166.566 70.367 169.367 Q66.8485 172.168 60.3671 172.168 Q58.1912 172.168 55.8764 171.728 Q53.5847 171.312 51.131 170.455 L51.131 165.941 Q53.0754 167.075 55.3903 167.654 Q57.7051 168.233 60.2282 168.233 Q64.6263 168.233 66.918 166.497 Q69.2328 164.761 69.2328 161.45 Q69.2328 158.395 67.08 156.682 Q64.9504 154.946 61.131 154.946 L57.1032 154.946 L57.1032 151.103 L61.3161 151.103 Q64.7652 151.103 66.5939 149.738 Q68.4226 148.349 68.4226 145.756 Q68.4226 143.094 66.5245 141.682 Q64.6495 140.247 61.131 140.247 Q59.2097 140.247 57.0106 140.664 Q54.8115 141.08 52.1727 141.96 L52.1727 137.793 Q54.8347 137.052 57.1495 136.682 Q59.4875 136.312 61.5476 136.312 Q66.8717 136.312 69.9735 138.742 Q73.0753 141.15 73.0753 145.27 Q73.0753 148.14 71.4318 150.131 Q69.7883 152.099 66.7559 152.863 Z" fill="#000000" fill-rule="evenodd" fill-opacity="1" /><path clip-path="url(#clip750)" d="M92.7512 140.015 Q89.1401 140.015 87.3114 143.58 Q85.5058 147.122 85.5058 154.251 Q85.5058 161.358 87.3114 164.923 Q89.1401 168.464 92.7512 168.464 Q96.3854 168.464 98.1909 164.923 Q100.02 161.358 100.02 154.251 Q100.02 147.122 98.1909 143.58 Q96.3854 140.015 92.7512 140.015 M92.7512 136.312 Q98.5613 136.312 101.617 140.918 Q104.696 145.501 104.696 154.251 Q104.696 162.978 101.617 167.585 Q98.5613 172.168 92.7512 172.168 Q86.941 172.168 83.8623 167.585 Q80.8068 162.978 80.8068 154.251 Q80.8068 145.501 83.8623 140.918 Q86.941 136.312 92.7512 136.312 Z" fill="#000000" fill-rule="evenodd" fill-opacity="1" /><path clip-path="url(#clip750)" d="M122.913 140.015 Q119.302 140.015 117.473 143.58 Q115.668 147.122 115.668 154.251 Q115.668 161.358 117.473 164.923 Q119.302 168.464 122.913 168.464 Q126.547 168.464 128.353 164.923 Q130.182 161.358 130.182 154.251 Q130.182 147.122 128.353 143.58 Q126.547 140.015 122.913 140.015 M122.913 136.312 Q128.723 136.312 131.779 140.918 Q134.857 145.501 134.857 154.251 Q134.857 162.978 131.779 167.585 Q128.723 172.168 122.913 172.168 Q117.103 172.168 114.024 167.585 Q110.969 162.978 110.969 154.251 Q110.969 145.501 114.024 140.918 Q117.103 136.312 122.913 136.312 Z" fill="#000000" fill-rule="evenodd" fill-opacity="1" /><path clip-path="url(#clip752)" d="
M290.866 298.597 L290.866 1466.76 L369.326 1466.76 L369.326 298.597 L290.866 298.597 L290.866 298.597  Z
  " fill="#009af9" fill-rule="evenodd" fill-opacity="1"/>
<polyline clip-path="url(#clip752)" style="stroke:#000000; stroke-linecap:butt; stroke-linejoin:round; stroke-width:4; stroke-opacity:1; fill:none" points="
  290.866,298.597 290.866,1466.76 369.326,1466.76 369.326,298.597 290.866,298.597 
  "/>
<path clip-path="url(#clip752)" d="
M388.941 88.5893 L388.941 1466.76 L467.4 1466.76 L467.4 88.5893 L388.941 88.5893 L388.941 88.5893  Z
  " fill="#009af9" fill-rule="evenodd" fill-opacity="1"/>
<polyline clip-path="url(#clip752)" style="stroke:#000000; stroke-linecap:butt; stroke-linejoin:round; stroke-width:4; stroke-opacity:1; fill:none" points="
  388.941,88.5893 388.941,1466.76 467.4,1466.76 467.4,88.5893 388.941,88.5893 
  "/>
<path clip-path="url(#clip752)" d="
M487.015 316.098 L487.015 1466.76 L565.475 1466.76 L565.475 316.098 L487.015 316.098 L487.015 316.098  Z
  " fill="#009af9" fill-rule="evenodd" fill-opacity="1"/>
<polyline clip-path="url(#clip752)" style="stroke:#000000; stroke-linecap:butt; stroke-linejoin:round; stroke-width:4; stroke-opacity:1; fill:none" points="
  487.015,316.098 487.015,1466.76 565.475,1466.76 565.475,316.098 487.015,316.098 
  "/>
<path clip-path="url(#clip752)" d="
M585.09 1278.63 L585.09 1466.76 L663.55 1466.76 L663.55 1278.63 L585.09 1278.63 L585.09 1278.63  Z
  " fill="#009af9" fill-rule="evenodd" fill-opacity="1"/>
<polyline clip-path="url(#clip752)" style="stroke:#000000; stroke-linecap:butt; stroke-linejoin:round; stroke-width:4; stroke-opacity:1; fill:none" points="
  585.09,1278.63 585.09,1466.76 663.55,1466.76 663.55,1278.63 585.09,1278.63 
  "/>
<path clip-path="url(#clip752)" d="
M683.165 1440.51 L683.165 1466.76 L761.625 1466.76 L761.625 1440.51 L683.165 1440.51 L683.165 1440.51  Z
  " fill="#009af9" fill-rule="evenodd" fill-opacity="1"/>
<polyline clip-path="url(#clip752)" style="stroke:#000000; stroke-linecap:butt; stroke-linejoin:round; stroke-width:4; stroke-opacity:1; fill:none" points="
  683.165,1440.51 683.165,1466.76 761.625,1466.76 761.625,1440.51 683.165,1440.51 
  "/>
<path clip-path="url(#clip752)" d="
M781.24 1427.39 L781.24 1466.76 L859.7 1466.76 L859.7 1427.39 L781.24 1427.39 L781.24 1427.39  Z
  " fill="#009af9" fill-rule="evenodd" fill-opacity="1"/>
<polyline clip-path="url(#clip752)" style="stroke:#000000; stroke-linecap:butt; stroke-linejoin:round; stroke-width:4; stroke-opacity:1; fill:none" points="
  781.24,1427.39 781.24,1466.76 859.7,1466.76 859.7,1427.39 781.24,1427.39 
  "/>
<path clip-path="url(#clip752)" d="
M879.315 1313.63 L879.315 1466.76 L957.775 1466.76 L957.775 1313.63 L879.315 1313.63 L879.315 1313.63  Z
  " fill="#009af9" fill-rule="evenodd" fill-opacity="1"/>
<polyline clip-path="url(#clip752)" style="stroke:#000000; stroke-linecap:butt; stroke-linejoin:round; stroke-width:4; stroke-opacity:1; fill:none" points="
  879.315,1313.63 879.315,1466.76 957.775,1466.76 957.775,1313.63 879.315,1313.63 
  "/>
<path clip-path="url(#clip752)" d="
M977.39 1427.39 L977.39 1466.76 L1055.85 1466.76 L1055.85 1427.39 L977.39 1427.39 L977.39 1427.39  Z
  " fill="#009af9" fill-rule="evenodd" fill-opacity="1"/>
<polyline clip-path="url(#clip752)" style="stroke:#000000; stroke-linecap:butt; stroke-linejoin:round; stroke-width:4; stroke-opacity:1; fill:none" points="
  977.39,1427.39 977.39,1466.76 1055.85,1466.76 1055.85,1427.39 977.39,1427.39 
  "/>
<path clip-path="url(#clip752)" d="
M1075.46 1379.26 L1075.46 1466.76 L1153.92 1466.76 L1153.92 1379.26 L1075.46 1379.26 L1075.46 1379.26  Z
  " fill="#009af9" fill-rule="evenodd" fill-opacity="1"/>
<polyline clip-path="url(#clip752)" style="stroke:#000000; stroke-linecap:butt; stroke-linejoin:round; stroke-width:4; stroke-opacity:1; fill:none" points="
  1075.46,1379.26 1075.46,1466.76 1153.92,1466.76 1153.92,1379.26 1075.46,1379.26 
  "/>
<path clip-path="url(#clip752)" d="
M1173.54 1427.39 L1173.54 1466.76 L1252 1466.76 L1252 1427.39 L1173.54 1427.39 L1173.54 1427.39  Z
  " fill="#009af9" fill-rule="evenodd" fill-opacity="1"/>
<polyline clip-path="url(#clip752)" style="stroke:#000000; stroke-linecap:butt; stroke-linejoin:round; stroke-width:4; stroke-opacity:1; fill:none" points="
  1173.54,1427.39 1173.54,1466.76 1252,1466.76 1252,1427.39 1173.54,1427.39 
  "/>
<path clip-path="url(#clip752)" d="
M1271.61 1449.26 L1271.61 1466.76 L1350.07 1466.76 L1350.07 1449.26 L1271.61 1449.26 L1271.61 1449.26  Z
  " fill="#009af9" fill-rule="evenodd" fill-opacity="1"/>
<polyline clip-path="url(#clip752)" style="stroke:#000000; stroke-linecap:butt; stroke-linejoin:round; stroke-width:4; stroke-opacity:1; fill:none" points="
  1271.61,1449.26 1271.61,1466.76 1350.07,1466.76 1350.07,1449.26 1271.61,1449.26 
  "/>
<path clip-path="url(#clip752)" d="
M1369.69 1431.76 L1369.69 1466.76 L1448.15 1466.76 L1448.15 1431.76 L1369.69 1431.76 L1369.69 1431.76  Z
  " fill="#009af9" fill-rule="evenodd" fill-opacity="1"/>
<polyline clip-path="url(#clip752)" style="stroke:#000000; stroke-linecap:butt; stroke-linejoin:round; stroke-width:4; stroke-opacity:1; fill:none" points="
  1369.69,1431.76 1369.69,1466.76 1448.15,1466.76 1448.15,1431.76 1369.69,1431.76 
  "/>
<path clip-path="url(#clip752)" d="
M1467.76 1462.39 L1467.76 1466.76 L1546.22 1466.76 L1546.22 1462.39 L1467.76 1462.39 L1467.76 1462.39  Z
  " fill="#009af9" fill-rule="evenodd" fill-opacity="1"/>
<polyline clip-path="url(#clip752)" style="stroke:#000000; stroke-linecap:butt; stroke-linejoin:round; stroke-width:4; stroke-opacity:1; fill:none" points="
  1467.76,1462.39 1467.76,1466.76 1546.22,1466.76 1546.22,1462.39 1467.76,1462.39 
  "/>
<path clip-path="url(#clip752)" d="
M1565.84 1449.26 L1565.84 1466.76 L1644.3 1466.76 L1644.3 1449.26 L1565.84 1449.26 L1565.84 1449.26  Z
  " fill="#009af9" fill-rule="evenodd" fill-opacity="1"/>
<polyline clip-path="url(#clip752)" style="stroke:#000000; stroke-linecap:butt; stroke-linejoin:round; stroke-width:4; stroke-opacity:1; fill:none" points="
  1565.84,1449.26 1565.84,1466.76 1644.3,1466.76 1644.3,1449.26 1565.84,1449.26 
  "/>
<path clip-path="url(#clip752)" d="
M1663.91 1462.39 L1663.91 1466.76 L1742.37 1466.76 L1742.37 1462.39 L1663.91 1462.39 L1663.91 1462.39  Z
  " fill="#009af9" fill-rule="evenodd" fill-opacity="1"/>
<polyline clip-path="url(#clip752)" style="stroke:#000000; stroke-linecap:butt; stroke-linejoin:round; stroke-width:4; stroke-opacity:1; fill:none" points="
  1663.91,1462.39 1663.91,1466.76 1742.37,1466.76 1742.37,1462.39 1663.91,1462.39 
  "/>
<path clip-path="url(#clip752)" d="
M1761.99 1462.39 L1761.99 1466.76 L1840.45 1466.76 L1840.45 1462.39 L1761.99 1462.39 L1761.99 1462.39  Z
  " fill="#009af9" fill-rule="evenodd" fill-opacity="1"/>
<polyline clip-path="url(#clip752)" style="stroke:#000000; stroke-linecap:butt; stroke-linejoin:round; stroke-width:4; stroke-opacity:1; fill:none" points="
  1761.99,1462.39 1761.99,1466.76 1840.45,1466.76 1840.45,1462.39 1761.99,1462.39 
  "/>
<path clip-path="url(#clip752)" d="
M1860.06 1462.39 L1860.06 1466.76 L1938.52 1466.76 L1938.52 1462.39 L1860.06 1462.39 L1860.06 1462.39  Z
  " fill="#009af9" fill-rule="evenodd" fill-opacity="1"/>
<polyline clip-path="url(#clip752)" style="stroke:#000000; stroke-linecap:butt; stroke-linejoin:round; stroke-width:4; stroke-opacity:1; fill:none" points="
  1860.06,1462.39 1860.06,1466.76 1938.52,1466.76 1938.52,1462.39 1860.06,1462.39 
  "/>
<path clip-path="url(#clip752)" d="
M1958.14 1462.39 L1958.14 1466.76 L2036.6 1466.76 L2036.6 1462.39 L1958.14 1462.39 L1958.14 1462.39  Z
  " fill="#009af9" fill-rule="evenodd" fill-opacity="1"/>
<polyline clip-path="url(#clip752)" style="stroke:#000000; stroke-linecap:butt; stroke-linejoin:round; stroke-width:4; stroke-opacity:1; fill:none" points="
  1958.14,1462.39 1958.14,1466.76 2036.6,1466.76 2036.6,1462.39 1958.14,1462.39 
  "/>
<path clip-path="url(#clip752)" d="
M2056.21 1458.01 L2056.21 1466.76 L2134.67 1466.76 L2134.67 1458.01 L2056.21 1458.01 L2056.21 1458.01  Z
  " fill="#009af9" fill-rule="evenodd" fill-opacity="1"/>
<polyline clip-path="url(#clip752)" style="stroke:#000000; stroke-linecap:butt; stroke-linejoin:round; stroke-width:4; stroke-opacity:1; fill:none" points="
  2056.21,1458.01 2056.21,1466.76 2134.67,1466.76 2134.67,1458.01 2056.21,1458.01 
  "/>
<path clip-path="url(#clip752)" d="
M2154.29 1462.39 L2154.29 1466.76 L2232.75 1466.76 L2232.75 1462.39 L2154.29 1462.39 L2154.29 1462.39  Z
  " fill="#009af9" fill-rule="evenodd" fill-opacity="1"/>
<polyline clip-path="url(#clip752)" style="stroke:#000000; stroke-linecap:butt; stroke-linejoin:round; stroke-width:4; stroke-opacity:1; fill:none" points="
  2154.29,1462.39 2154.29,1466.76 2232.75,1466.76 2232.75,1462.39 2154.29,1462.39 
  "/>
<path clip-path="url(#clip750)" d="
M1985.16 199.62 L2280.03 199.62 L2280.03 95.9396 L1985.16 95.9396  Z
  " fill="#ffffff" fill-rule="evenodd" fill-opacity="1"/>
<polyline clip-path="url(#clip750)" style="stroke:#000000; stroke-linecap:butt; stroke-linejoin:round; stroke-width:4; stroke-opacity:1; fill:none" points="
  1985.16,199.62 2280.03,199.62 2280.03,95.9396 1985.16,95.9396 1985.16,199.62 
  "/>
<path clip-path="url(#clip750)" d="
M2009.41 168.516 L2154.87 168.516 L2154.87 127.044 L2009.41 127.044 L2009.41 168.516  Z
  " fill="#009af9" fill-rule="evenodd" fill-opacity="1"/>
<polyline clip-path="url(#clip750)" style="stroke:#000000; stroke-linecap:butt; stroke-linejoin:round; stroke-width:4; stroke-opacity:1; fill:none" points="
  2009.41,168.516 2154.87,168.516 2154.87,127.044 2009.41,127.044 2009.41,168.516 
  "/>
<path clip-path="url(#clip750)" d="M2192.95 167.467 Q2191.15 172.097 2189.43 173.509 Q2187.72 174.921 2184.85 174.921 L2181.45 174.921 L2181.45 171.356 L2183.95 171.356 Q2185.71 171.356 2186.68 170.523 Q2187.65 169.689 2188.83 166.587 L2189.6 164.643 L2179.11 139.134 L2183.62 139.134 L2191.72 159.411 L2199.83 139.134 L2204.34 139.134 L2192.95 167.467 Z" fill="#000000" fill-rule="evenodd" fill-opacity="1" /><path clip-path="url(#clip750)" d="M2211.63 161.124 L2219.27 161.124 L2219.27 134.759 L2210.96 136.425 L2210.96 132.166 L2219.22 130.5 L2223.9 130.5 L2223.9 161.124 L2231.54 161.124 L2231.54 165.06 L2211.63 165.06 L2211.63 161.124 Z" fill="#000000" fill-rule="evenodd" fill-opacity="1" /></svg>
